<?xml version="1.0" standalone="no"?><!DOCTYPE svg PUBLIC "-//W3C//DTD SVG 1.1//EN" "http://www.w3.org/Graphics/SVG/1.1/DTD/svg11.dtd"><svg t="1517551547282" class="icon" style="" viewBox="0 0 1024 1024" version="1.1" xmlns="http://www.w3.org/2000/svg" p-id="3648" xmlns:xlink="http://www.w3.org/1999/xlink" width="200" height="200"><defs><style type="text/css"></style></defs><path d="M482.112 67.2c0-12.8 12.8-25.6 25.6-25.6s25.6 12.8 25.6 25.6v97.536c123.84 14.912 230.4 135.872 230.4 273.664v153.6c0 19.2 6.4 38.4 12.8 51.2l64 102.4c12.8 19.2 12.8 38.4 0 57.6-12.8 19.2-32 32-51.2 32H634.688c0.64 2.112 1.024 4.224 1.024 6.4 0 76.8-57.6 140.8-128 140.8s-128-64-128-134.4a23.68 23.68 0 0 1 4.096-12.8H232.512c-19.2 0-38.4-12.8-51.2-32-12.8-19.2-6.4-38.4 0-57.6l64-102.4c12.8-19.2 19.2-38.4 12.8-57.6v-147.2c0-96 51.2-179.2 128-230.4 12.8-6.4 25.6-6.4 38.4 6.4 12.8 12.8 6.4 25.6-6.4 38.4-64 38.4-108.8 108.8-108.8 185.6l6.4 147.2c0 32-6.4 57.6-25.6 89.6l-64 102.4v6.4l6.4 6.4h556.8s6.4 0 6.4-6.4v-6.4l-64-102.4c-12.8-32-25.6-57.6-25.6-89.6v-147.2c0-121.6-89.6-224-204.8-224-6.4 0-19.2-12.8-19.2-25.6v-121.6z m103.424 768H429.696c0.768 1.92 1.216 4.032 1.216 6.4 0 44.8 32 83.2 76.8 83.2s76.8-38.4 76.8-83.2c0-2.176 0.32-4.288 1.024-6.4z" fill="#515151" p-id="3649"></path></svg>