<?xml version="1.0" standalone="no"?><!DOCTYPE svg PUBLIC "-//W3C//DTD SVG 1.1//EN" "http://www.w3.org/Graphics/SVG/1.1/DTD/svg11.dtd"><svg t="1517478708192" class="icon" style="" viewBox="0 0 1024 1024" version="1.1" xmlns="http://www.w3.org/2000/svg" p-id="1546" xmlns:xlink="http://www.w3.org/1999/xlink" width="200" height="200"><defs><style type="text/css"></style></defs><path d="M942.1 714l-0.6-0.6c-10.4-10.3-24.4-16-39-16h-13.6v-13.6c0-30.7-24.8-55.5-55.5-55.6h-13.9v-13.8c0-14.8-5.9-28.9-16.3-39.3l-86.4-86.4c32.4-114.8 0.9-238.8-84.8-324.5C569.3 101.5 486 67 397.4 67c-88.7 0-172 34.5-234.7 97.2-62.7 62.7-97.2 146-97.2 234.6s34.5 172 97.2 234.6c62.6 62.7 146 97.2 234.6 97.2 30.7 0 60.8-4.2 89.9-12.4l225.7 225.7c10.5 10.5 24.6 16.3 39.3 16.3 1 0 2 0 3-0.1l143.2-7.7c28.4-1.5 51-24.2 52.6-52.6l7.7-143.2c0.8-15.9-5.2-31.4-16.6-42.6z m-46.7 182.9l-143.3 7.7L502 654.3c-33.5 13.7-69.1 20.6-104.8 20.6-70.7 0-141.4-27-195.3-80.9-107.9-107.9-107.8-282.8 0-390.6 54-53.9 124.6-80.9 195.3-80.9 70.7 0 141.3 27 195.3 80.9 81.1 81.1 101.2 200.1 60.4 300l110.9 110.9v69.2l69.4 0.2V753h69.3l0.6 0.6-7.7 143.3z" fill="#4F4F4F" p-id="1547"></path><path d="M315.6 418.1c27 0 52.4-10.5 71.5-29.6s29.6-44.5 29.6-71.4c0-27-10.5-52.4-29.6-71.4-19.1-19.2-44.5-29.7-71.5-29.7s-52.4 10.5-71.4 29.6c-39.4 39.4-39.4 103.5 0 142.9 19 19.1 44.4 29.6 71.4 29.6z m-45.2-146.3c12.1-12.1 28.1-18.8 45.2-18.8s33.1 6.7 45.2 18.7c12.1 12.1 18.7 28.1 18.7 45.2s-6.7 33.1-18.7 45.2c-12.1 12.1-28.2 18.8-45.2 18.8-17.1 0-33.1-6.7-45.2-18.7-24.9-24.9-24.9-65.4 0-90.4z" fill="#4F4F4F" p-id="1548"></path><path d="M570.4 545.6c76-89.4 72-224.1-12.5-308.5-32.4-32.4-73.2-54-118-62.6-10-1.9-19.8 4.6-21.7 14.7-1.9 10 4.6 19.8 14.7 21.7 37.5 7.2 71.6 25.3 98.7 52.4 74.4 74.4 74.4 195.5 0 269.9-36 36.1-84 55.9-135 55.9s-98.9-19.9-134.9-55.9c-27.1-27.1-45.2-61.2-52.4-98.7-1.9-10.1-11.7-16.6-21.7-14.7-10.1 1.9-16.7 11.7-14.7 21.7 8.6 44.8 30.3 85.6 62.6 118 43 43.1 100.3 66.8 161.2 66.8 54.7 0 106.4-19.2 147.5-54.2l255.4 255.4c3.6 3.6 8.4 5.4 13.1 5.4 4.7 0 9.5-1.8 13.1-5.4 7.2-7.2 7.2-19 0-26.2L570.4 545.6z" fill="#4F4F4F" p-id="1549"></path></svg>